<svg xmlns="http://www.w3.org/2000/svg" xml:space="preserve" viewBox="0 0 1535 220" class="h-[100px] w-[250px] object-cover select-none sm:w-[300px] lg:w-[350px]"><path d="m172.1 73.9 19.5-19.5-26.3-26.3-38.1 38.1V12.3H90v53.9L51.8 28.1 25.5 54.4 45 73.9zM9.7 129.7h54l-38.2 38.2 26.3 26.3L90 156.1V210h37.2v-53.9l38.1 38.1 26.3-26.3-38.1-38.2h53.9V92.5H9.7zM290.5 164.5c-3.3-1.9-7.2-2.8-11.8-2.8h-15.3v47.5H278c4.8 0 8.9-1 12.3-2.9 3.4-1.9 5.9-4.6 7.7-8.2 1.8-3.6 2.6-7.8 2.6-12.8 0-4.9-.9-9.1-2.6-12.7-1.7-3.5-4.2-6.2-7.5-8.1zm2.7 30.8c-1.3 2.8-3.2 5-5.8 6.5-2.6 1.5-5.8 2.3-9.8 2.3h-8.5v-37.3h9.2c3.7 0 6.8.7 9.3 2.2 2.5 1.5 4.4 3.6 5.6 6.4 1.3 2.8 1.9 6.1 1.9 9.9 0 3.9-.6 7.2-1.9 10zM317.7 187.9h21.5v-5.1h-21.5v-16.1h23v-5.1H312v47.6h29v-5.1h-23.3zM380.1 186.9c-1.4-1-2.9-1.8-4.4-2.3-1.5-.6-2.9-1-4.1-1.3l-4.8-1.3c-.9-.2-1.8-.5-2.9-.9-1.1-.4-2.1-.9-3-1.5-1-.6-1.7-1.3-2.4-2.3-.6-.9-.9-2-.9-3.3 0-1.5.4-2.9 1.3-4.1.9-1.2 2.1-2.1 3.7-2.8 1.6-.7 3.4-1 5.5-1 2.9 0 5.3.6 7.3 1.9 2 1.3 3.1 3.1 3.4 5.5h5.6c-.1-2.4-.8-4.5-2.2-6.4s-3.3-3.4-5.7-4.5c-2.4-1.1-5.1-1.6-8.2-1.6-3 0-5.8.6-8.2 1.7-2.5 1.1-4.4 2.7-5.8 4.6-1.4 2-2.2 4.3-2.2 7 0 3.2 1.1 5.8 3.2 7.8 2.2 2 5.1 3.5 8.8 4.6l5.8 1.7c1.7.5 3.2 1 4.7 1.6 1.4.6 2.6 1.4 3.5 2.4.9 1 1.3 2.3 1.3 3.9 0 1.7-.5 3.2-1.5 4.5-1 1.3-2.4 2.3-4.2 3-1.7.7-3.7 1.1-5.9 1.1-1.9 0-3.6-.3-5.3-.8-1.6-.6-3-1.4-4-2.6-1.1-1.2-1.7-2.6-1.8-4.4h-5.9c.2 2.6 1 4.9 2.4 6.8 1.4 2 3.4 3.5 5.8 4.6 2.5 1.1 5.4 1.6 8.8 1.6 3.7 0 6.8-.6 9.3-1.8 2.6-1.2 4.5-2.9 5.8-4.9 1.3-2.1 2-4.4 2-7 0-2.2-.5-4.1-1.4-5.6-.9-1.7-2-3-3.4-3.9zM396 161.6h5.8v47.5H396zM435.5 190.5H448c0 2.7-.6 5.2-1.7 7.2-1.2 2.1-2.8 3.8-4.9 5-2.1 1.2-4.5 1.8-7.2 1.8-2.9 0-5.6-.7-7.9-2.2-2.4-1.5-4.2-3.6-5.6-6.4-1.4-2.8-2.1-6.3-2.1-10.4 0-4.1.7-7.6 2-10.4 1.4-2.8 3.2-5 5.5-6.4 2.3-1.5 4.9-2.2 7.7-2.2 1.7 0 3.3.2 4.7.7 1.4.5 2.7 1.1 3.9 2 1.1.9 2.1 1.9 2.9 3.2.8 1.2 1.5 2.6 2 4.2h5.9c-.4-2.3-1.2-4.4-2.4-6.3-1.1-1.9-2.6-3.5-4.3-4.9-1.7-1.4-3.7-2.4-5.8-3.2-2.2-.8-4.5-1.1-7-1.1-3 0-5.8.6-8.4 1.7-2.5 1.1-4.7 2.8-6.6 4.9-1.9 2.1-3.3 4.7-4.3 7.7s-1.5 6.4-1.5 10.2c0 5 .9 9.3 2.7 13 1.8 3.7 4.2 6.5 7.4 8.4 3.2 2 6.9 3 11.1 3 3.8 0 7.1-.8 10-2.4 2.9-1.6 5.2-3.8 6.9-6.7 1.7-2.9 2.5-6.3 2.5-10.2v-5.1h-18.1v4.9zM497.1 199h-.5l-26-37.4h-5.5v47.6h5.7v-37.4h.5l25.9 37.4h5.6v-47.6h-5.7zM549.3 161.6l-17.5 47.5h6l4.8-13.5h19.2l4.8 13.5h6l-17.5-47.5h-5.8zm-4.8 29 7.6-21.4h.4l7.6 21.4h-15.6zM613.8 199h-.5l-26-37.4h-5.6v47.6h5.8v-37.4h.5l25.9 37.4h5.5v-47.6h-5.6zM659.7 164.5c-3.3-1.9-7.2-2.8-11.8-2.8h-15.3v47.5h14.7c4.8 0 8.9-1 12.3-2.9 3.4-1.9 5.9-4.6 7.7-8.2 1.8-3.6 2.6-7.8 2.6-12.8 0-4.9-.9-9.1-2.6-12.7-1.8-3.5-4.3-6.2-7.6-8.1zm2.7 30.8c-1.3 2.8-3.2 5-5.8 6.5-2.6 1.5-5.8 2.3-9.8 2.3h-8.5v-37.3h9.2c3.7 0 6.8.7 9.3 2.2 2.5 1.5 4.4 3.6 5.6 6.4 1.3 2.8 1.9 6.1 1.9 9.9 0 3.9-.6 7.2-1.9 10zM714.5 161.6 697 209.1h6l4.8-13.5H727l4.8 13.5h6l-17.5-47.5h-5.8zm-4.8 29 7.6-21.4h.4l7.6 21.4h-15.6zM772.2 188.8c2.4-1.2 4.1-2.9 5.3-5.1 1.1-2.2 1.7-4.6 1.7-7.4 0-2.8-.6-5.3-1.7-7.5s-2.9-3.9-5.3-5.2c-2.4-1.3-5.4-1.9-9.1-1.9H747v47.5h5.8v-18.6h10.4c.4 0 .8 0 1.2-.1l10 18.6h6.7l-10.7-19.6c.6-.2 1.2-.4 1.8-.7zm-19.4-22.1h10.1c2.6 0 4.6.4 6.2 1.2 1.6.8 2.7 1.9 3.4 3.3.7 1.4 1.1 3.1 1.1 5s-.4 3.5-1.1 4.9c-.7 1.4-1.8 2.4-3.4 3.2-1.6.7-3.6 1.1-6.1 1.1h-10.2v-18.7zM787.8 166.7h14.9v42.5h5.8v-42.5h14.9v-5.1h-35.6zM865.3 168.6c2.3-1.5 4.9-2.2 7.8-2.2 1.6 0 3.1.2 4.5.6 1.5.4 2.8 1.1 4 1.9 1.2.9 2.2 1.9 3.1 3.2.8 1.3 1.4 2.7 1.8 4.4h5.8c-.4-2.4-1.2-4.6-2.4-6.5-1.1-1.9-2.6-3.5-4.3-4.9-1.7-1.3-3.6-2.4-5.7-3-2.1-.7-4.4-1-6.8-1-4.1 0-7.7 1-10.8 3-3.2 2-5.6 4.8-7.4 8.4-1.8 3.7-2.7 8-2.7 13s.9 9.3 2.7 13c1.8 3.7 4.3 6.5 7.4 8.4 3.2 2 6.8 3 10.8 3 2.4 0 4.7-.3 6.8-1 2.1-.7 4-1.7 5.7-3.1 1.7-1.3 3.1-3 4.3-4.9 1.1-1.9 1.9-4.1 2.4-6.5h-5.8c-.3 1.6-.9 3.1-1.8 4.3-.8 1.3-1.9 2.3-3.1 3.2-1.2.9-2.5 1.5-4 1.9-1.5.4-3 .6-4.5.6-2.9 0-5.5-.7-7.8-2.2-2.3-1.5-4.2-3.6-5.5-6.4-1.4-2.8-2.1-6.3-2.1-10.4 0-4.1.7-7.6 2.1-10.4 1.3-2.8 3.2-5 5.5-6.4zM933.1 164c-3.2-2-6.8-3-10.8-3-4.1 0-7.7 1-10.8 3-3.2 2-5.6 4.8-7.4 8.4-1.8 3.7-2.7 8-2.7 13s.9 9.3 2.7 13c1.8 3.7 4.3 6.5 7.4 8.4 3.2 2 6.8 3 10.8 3 4.1 0 7.7-1 10.8-3 3.2-2 5.6-4.8 7.4-8.4 1.8-3.7 2.7-8 2.7-13s-.9-9.3-2.7-13c-1.8-3.6-4.2-6.5-7.4-8.4zm2.5 31.8c-1.4 2.8-3.2 5-5.5 6.4-2.3 1.5-4.9 2.2-7.8 2.2-2.9 0-5.5-.7-7.8-2.2-2.3-1.5-4.2-3.6-5.5-6.4-1.4-2.8-2.1-6.3-2.1-10.4 0-4.1.7-7.6 2.1-10.4 1.4-2.8 3.2-5 5.5-6.4 2.3-1.5 4.9-2.2 7.8-2.2 2.9 0 5.5.7 7.8 2.2 2.3 1.5 4.2 3.6 5.5 6.4 1.4 2.8 2.1 6.3 2.1 10.4 0 4.1-.7 7.6-2.1 10.4zM986.6 199h-.5l-26-37.4h-5.6v47.6h5.8v-37.4h.5l25.9 37.4h5.5v-47.6h-5.6zM1032.7 186.9c-1.4-1-2.9-1.8-4.4-2.3-1.5-.6-2.9-1-4.1-1.3l-4.8-1.3c-.9-.2-1.8-.5-2.9-.9-1.1-.4-2.1-.9-3-1.5-1-.6-1.7-1.3-2.4-2.3-.6-.9-.9-2-.9-3.3 0-1.5.4-2.9 1.3-4.1.9-1.2 2.1-2.1 3.7-2.8 1.6-.7 3.4-1 5.5-1 2.9 0 5.3.6 7.3 1.9 2 1.3 3.1 3.1 3.4 5.5h5.6c-.1-2.4-.8-4.5-2.2-6.4-1.4-1.9-3.3-3.4-5.7-4.5-2.4-1.1-5.1-1.6-8.2-1.6-3 0-5.8.6-8.2 1.7-2.4 1.1-4.4 2.7-5.8 4.6-1.4 2-2.2 4.3-2.2 7 0 3.2 1.1 5.8 3.2 7.8 2.2 2 5.1 3.5 8.8 4.6l5.8 1.7c1.7.5 3.2 1 4.7 1.6 1.4.6 2.6 1.4 3.5 2.4.9 1 1.3 2.3 1.3 3.9 0 1.7-.5 3.2-1.5 4.5-1 1.3-2.4 2.3-4.2 3-1.7.7-3.7 1.1-5.9 1.1-1.9 0-3.6-.3-5.3-.8-1.6-.6-3-1.4-4-2.6-1.1-1.2-1.7-2.6-1.8-4.4h-5.9c.2 2.6 1 4.9 2.4 6.8s3.4 3.5 5.8 4.6c2.5 1.1 5.4 1.6 8.8 1.6 3.7 0 6.8-.6 9.3-1.8 2.6-1.2 4.5-2.9 5.8-4.9 1.3-2.1 2-4.4 2-7 0-2.2-.5-4.1-1.4-5.6-.8-1.7-2-3-3.4-3.9zM1079.9 192.6c0 2.3-.5 4.4-1.5 6.2-1 1.8-2.5 3.2-4.4 4.2-1.9 1-4.2 1.5-6.8 1.5-2.6 0-4.9-.5-6.8-1.5-1.9-1-3.4-2.4-4.4-4.2-1-1.8-1.5-3.9-1.5-6.2v-31h-5.8v31.5c0 3.2.8 6.1 2.3 8.7 1.5 2.5 3.7 4.5 6.4 6 2.8 1.5 6 2.2 9.7 2.2 3.7 0 7-.7 9.7-2.2 2.8-1.5 4.9-3.5 6.4-6s2.3-5.4 2.3-8.7v-31.5h-5.8v31zM1104.5 161.6h-5.7v47.6h27.8v-5.1h-22.1zM1128.3 166.7h14.9v42.5h5.8v-42.5h14.9v-5.1h-35.6zM1182.2 161.6l-17.5 47.5h6l4.8-13.5h19.2l4.8 13.5h6l-17.5-47.5h-5.8zm-4.8 29 7.6-21.4h.4l7.6 21.4h-15.6zM1246.7 199h-.5l-25.9-37.4h-5.6v47.6h5.7v-37.4h.5l25.9 37.4h5.6v-47.6h-5.7zM1276.8 168.6c2.3-1.5 4.9-2.2 7.8-2.2 1.6 0 3.1.2 4.5.6 1.5.4 2.8 1.1 4 1.9 1.2.9 2.2 1.9 3.1 3.2.8 1.3 1.4 2.7 1.8 4.4h5.8c-.4-2.4-1.2-4.6-2.4-6.5-1.1-1.9-2.6-3.5-4.3-4.9-1.7-1.3-3.6-2.4-5.7-3-2.1-.7-4.4-1-6.8-1-4.1 0-7.7 1-10.8 3-3.2 2-5.6 4.8-7.4 8.4-1.8 3.7-2.7 8-2.7 13s.9 9.3 2.7 13c1.8 3.7 4.3 6.5 7.4 8.4 3.2 2 6.8 3 10.8 3 2.4 0 4.7-.3 6.8-1 2.1-.7 4-1.7 5.7-3.1 1.7-1.3 3.1-3 4.3-4.9 1.1-1.9 1.9-4.1 2.4-6.5h-5.8c-.3 1.6-.9 3.1-1.8 4.3-.8 1.3-1.9 2.3-3.1 3.2-1.2.9-2.5 1.5-4 1.9-1.5.4-3 .6-4.5.6-2.9 0-5.5-.7-7.8-2.2-2.3-1.5-4.2-3.6-5.5-6.4-1.4-2.8-2.1-6.3-2.1-10.4 0-4.1.7-7.6 2.1-10.4 1.4-2.8 3.2-5 5.5-6.4zM1330.9 183.8h-.5l-13.2-22.2h-6.6l17.2 28v19.6h5.7v-19.6l17.2-28h-6.6zM351.6 84.2h-.9l-19.1-72.8H314l-19 72.8h-1l-17.8-72.8h-19.3l27.9 99h17.8l19.8-69.5h.8l19.9 69.5h17.7l27.9-99h-19.3zM445.9 11.4h-22.2l-34.9 99.1H408l8.2-24.4h37.3l8.2 24.4h19.2l-35-99.1zM421 71.6l13.4-39.9h.8l13.4 39.9H421zM558.9 95.4h-43.7v-84h-17.9v99h61.6zM595.8 80.9 606.7 68l29.6 42.4h21.6l-38.7-54.6 38.3-44.4h-21.9L597 56.9h-1.2V11.4h-18v99h18zM673.4 11.4h17.9v99.1h-17.9zM732.2 42.9h.9l46.6 67.5h16v-99h-17.8v67.5h-.9l-46.7-67.5h-16v99h17.9zM901.4 58.6h-40.2v14H884c-.1 4.5-1.1 8.5-3 11.9-2 3.6-4.8 6.3-8.5 8.3-3.7 1.9-8.1 2.9-13.1 2.9-5.5 0-10.4-1.3-14.6-4-4.2-2.7-7.5-6.6-9.8-11.8-2.4-5.2-3.5-11.5-3.5-19 0-7.4 1.2-13.7 3.6-18.9 2.4-5.2 5.6-9.1 9.8-11.8 4.2-2.7 8.9-4 14.2-4 3 0 5.7.4 8.2 1.1 2.5.8 4.7 1.9 6.7 3.4s3.6 3.3 5 5.3c1.4 2.1 2.5 4.4 3.3 7h18.3c-.7-4.9-2.3-9.3-4.7-13.4-2.4-4-5.4-7.5-9.1-10.5-3.7-2.9-7.9-5.2-12.7-6.8-4.7-1.6-9.9-2.4-15.3-2.4-6.5 0-12.5 1.2-18 3.5s-10.3 5.7-14.4 10.1c-4.1 4.4-7.3 9.7-9.6 16-2.3 6.3-3.4 13.4-3.4 21.4 0 10.5 1.9 19.5 5.8 27.1 3.9 7.6 9.2 13.4 16.1 17.6 6.9 4.1 14.9 6.2 24 6.2 8.2 0 15.4-1.7 21.8-5 6.3-3.3 11.3-8.1 14.9-14.3 3.6-6.2 5.4-13.5 5.4-22V58.6zM1029.6 97.3c2.5-4.1 3.7-8.7 3.7-13.8 0-5-1-9.3-3.1-12.9-2.1-3.5-4.7-6.3-8-8.2-3.2-2-6.6-3-10.1-3.2v-1c3.2-.8 6.1-2 8.8-3.8 2.6-1.8 4.7-4.1 6.2-6.9 1.5-2.9 2.3-6.3 2.3-10.3 0-4.9-1.2-9.3-3.6-13.2s-5.9-6.9-10.7-9.2c-4.8-2.2-10.7-3.4-17.9-3.4h-37.9v99.1h40.1c7.6 0 13.9-1.2 18.9-3.5 5-2.4 8.8-5.7 11.3-9.7zm-52.3-71.1h18.1c5.3 0 9.3 1.2 12 3.7 2.7 2.5 4 5.6 4 9.5 0 2.9-.7 5.4-2.2 7.5-1.4 2.1-3.4 3.7-5.9 4.9-2.5 1.1-5.3 1.7-8.4 1.7h-17.8V26.2zm33.4 65.5c-2.9 2.5-7.6 3.7-14.1 3.7h-19.3v-29h19.8c3.7 0 6.9.7 9.6 2.1 2.7 1.4 4.7 3.2 6.2 5.6 1.5 2.4 2.2 5 2.2 8 0 3.9-1.5 7.1-4.4 9.6zM1108.5 70.4c5.2-2.5 9.2-6.1 11.9-10.8 2.7-4.7 4-10.2 4-16.5 0-6.3-1.3-11.9-4-16.6-2.7-4.8-6.6-8.5-11.8-11.1-5.2-2.6-11.6-4-19.2-4h-37.2v99.1h18V74.2h18.3l19.5 36.3h20l-21.4-39.2c.7-.4 1.3-.6 1.9-.9zm-38.2-44h16.4c4.5 0 8.1.7 11 2 2.8 1.3 5 3.2 6.3 5.7 1.4 2.5 2.1 5.5 2.1 9s-.7 6.5-2.1 8.9c-1.4 2.4-3.5 4.2-6.3 5.5-2.8 1.2-6.5 1.9-10.9 1.9h-16.5v-33zM1195 11.4h-22.2l-34.9 99.1h19.2l8.2-24.4h37.3l8.2 24.4h19.2l-35-99.1zm-24.9 60.2 13.4-39.9h.8l13.4 39.9h-27.6zM1264.3 42.9h.9l46.6 67.5h16v-99H1310v67.5h-.9l-46.7-67.5h-16v99h17.9zM1410.3 17.3c-7.1-4-15.5-5.9-25.4-5.9h-34.3v99.1h33.6c10.1 0 18.7-2 25.9-6s12.7-9.7 16.5-17.1c3.8-7.4 5.7-16.3 5.7-26.6s-1.9-19.1-5.7-26.5-9.2-13.1-16.3-17zm.8 62.4c-2.3 5-5.8 8.8-10.4 11.4-4.6 2.5-10.4 3.8-17.3 3.8h-14.8v-68h15.3c6.7 0 12.3 1.2 16.9 3.7 4.5 2.5 8 6.3 10.3 11.3 2.3 5 3.5 11.3 3.5 18.9 0 7.6-1.2 13.9-3.5 18.9zM1522.9 71.4c-1.6-3.2-3.8-5.9-6.6-8.2-2.8-2.3-5.9-4.1-9.3-5.6-3.5-1.5-7.1-2.7-10.8-3.5l-9.3-2.3c-2-.5-4-1.1-6-1.8s-3.8-1.6-5.5-2.6c-1.6-1-2.9-2.3-3.9-3.8s-1.4-3.3-1.4-5.4c0-2.5.8-4.7 2.2-6.6 1.4-1.9 3.5-3.5 6.1-4.6 2.7-1.1 5.9-1.7 9.6-1.7 5.3 0 9.7 1.2 13 3.5 3.3 2.4 5.2 5.6 5.7 9.9h17.3c-.1-5.6-1.7-10.5-4.7-14.8-3-4.3-7.2-7.7-12.5-10.1s-11.5-3.7-18.5-3.7c-6.9 0-13.1 1.2-18.6 3.7-5.5 2.4-9.8 5.8-13 10.2-3.2 4.4-4.8 9.5-4.8 15.3 0 7.1 2.4 12.8 7.1 17.1s11.2 7.5 19.3 9.6l11.3 2.9c3.5.9 6.7 1.9 9.3 3.1 2.7 1.1 4.7 2.6 6.2 4.3 1.5 1.7 2.2 3.8 2.3 6.4 0 2.8-.9 5.3-2.6 7.4-1.7 2.1-4 3.8-6.9 4.9-3 1.2-6.4 1.8-10.3 1.8-3.7 0-7.1-.6-10.1-1.7s-5.5-2.8-7.3-5.1-2.9-5.2-3.2-8.6h-17.7c.3 6.6 2 12.2 5.2 16.7 3.2 4.6 7.6 8.1 13.3 10.5 5.7 2.4 12.3 3.6 20.1 3.6 7.9 0 14.7-1.2 20.3-3.7 5.6-2.5 9.9-5.9 12.8-10.3 3-4.4 4.5-9.5 4.5-15.3-.2-4.6-1-8.3-2.6-11.5z"></path></svg>